<mxfile host="app.diagrams.net" agent="Mozilla/5.0 (Windows NT 10.0; Win64; x64) AppleWebKit/537.36 (KHTML, like Gecko) Chrome/132.0.0.0 Safari/537.36 Edg/132.0.0.0" version="26.0.10">
  <diagram name="Page-1" id="3vIR2HpVTP0UQyiUp9Tj">
    <mxGraphModel dx="94" dy="52" grid="1" gridSize="10" guides="1" tooltips="1" connect="1" arrows="1" fold="1" page="1" pageScale="1" pageWidth="3300" pageHeight="4681" math="0" shadow="0">
      <root>
        <mxCell id="0" />
        <mxCell id="1" parent="0" />
        <mxCell id="pif8Dmov2KubNqpBboYz-1" value="Bus Simulation FMU" style="rounded=1;whiteSpace=wrap;html=1;verticalAlign=bottom;fontSize=14;spacing=17;strokeColor=#999999;strokeWidth=2;" parent="1" vertex="1">
          <mxGeometry x="355" y="649" width="480" height="69" as="geometry" />
        </mxCell>
        <mxCell id="pif8Dmov2KubNqpBboYz-2" value="FMU" style="rounded=1;whiteSpace=wrap;html=1;verticalAlign=middle;fontSize=14;spacing=2;spacingTop=-10;strokeColor=#999999;strokeWidth=2;" parent="1" vertex="1">
          <mxGeometry x="476" y="517" width="110" height="55" as="geometry" />
        </mxCell>
        <mxCell id="pif8Dmov2KubNqpBboYz-3" value="" style="rounded=0;whiteSpace=wrap;html=1;fillColor=#cdeb8b;strokeColor=#36393d;" parent="1" vertex="1">
          <mxGeometry x="490.5" y="567" width="10" height="10" as="geometry" />
        </mxCell>
        <mxCell id="pif8Dmov2KubNqpBboYz-4" value="FMU" style="rounded=1;whiteSpace=wrap;html=1;verticalAlign=middle;fontSize=14;spacing=2;spacingTop=-10;strokeColor=#999999;strokeWidth=2;" parent="1" vertex="1">
          <mxGeometry x="601" y="517" width="110" height="55" as="geometry" />
        </mxCell>
        <mxCell id="pif8Dmov2KubNqpBboYz-5" value="FMU" style="rounded=1;whiteSpace=wrap;html=1;verticalAlign=middle;fontSize=14;spacing=2;spacingTop=-10;strokeColor=#999999;strokeWidth=2;" parent="1" vertex="1">
          <mxGeometry x="725" y="517" width="110" height="55" as="geometry" />
        </mxCell>
        <mxCell id="pif8Dmov2KubNqpBboYz-6" value="" style="endArrow=none;html=1;rounded=0;exitX=0.5;exitY=0;exitDx=0;exitDy=0;entryX=0.5;entryY=1;entryDx=0;entryDy=0;edgeStyle=orthogonalEdgeStyle;" parent="1" source="pif8Dmov2KubNqpBboYz-108" target="pif8Dmov2KubNqpBboYz-3" edge="1">
          <mxGeometry width="50" height="50" relative="1" as="geometry">
            <mxPoint x="525.5" y="633" as="sourcePoint" />
            <mxPoint x="644" y="592" as="targetPoint" />
          </mxGeometry>
        </mxCell>
        <mxCell id="pif8Dmov2KubNqpBboYz-7" value="" style="rounded=0;whiteSpace=wrap;html=1;fillColor=#cdeb8b;strokeColor=#36393d;" parent="1" vertex="1">
          <mxGeometry x="790" y="567" width="10" height="10" as="geometry" />
        </mxCell>
        <mxCell id="pif8Dmov2KubNqpBboYz-8" value="" style="endArrow=none;html=1;rounded=0;exitX=0.5;exitY=0;exitDx=0;exitDy=0;entryX=0.5;entryY=0;entryDx=0;entryDy=0;edgeStyle=orthogonalEdgeStyle;" parent="1" source="pif8Dmov2KubNqpBboYz-107" target="pif8Dmov2KubNqpBboYz-9" edge="1">
          <mxGeometry width="50" height="50" relative="1" as="geometry">
            <mxPoint x="543" y="633" as="sourcePoint" />
            <mxPoint x="586" y="613" as="targetPoint" />
            <Array as="points">
              <mxPoint x="513" y="590" />
              <mxPoint x="620" y="590" />
            </Array>
          </mxGeometry>
        </mxCell>
        <mxCell id="pif8Dmov2KubNqpBboYz-9" value="" style="rounded=0;whiteSpace=wrap;html=1;fillColor=#cdeb8b;strokeColor=#36393d;rotation=-180;" parent="1" vertex="1">
          <mxGeometry x="615" y="567" width="10" height="10" as="geometry" />
        </mxCell>
        <mxCell id="pif8Dmov2KubNqpBboYz-10" value="" style="rounded=0;whiteSpace=wrap;html=1;fillColor=#cdeb8b;strokeColor=#36393d;rotation=-180;" parent="1" vertex="1">
          <mxGeometry x="632" y="567" width="10" height="10" as="geometry" />
        </mxCell>
        <mxCell id="pif8Dmov2KubNqpBboYz-11" value="" style="endArrow=none;html=1;rounded=0;exitX=0.5;exitY=0;exitDx=0;exitDy=0;entryX=0.5;entryY=0;entryDx=0;entryDy=0;edgeStyle=orthogonalEdgeStyle;" parent="1" source="pif8Dmov2KubNqpBboYz-86" target="pif8Dmov2KubNqpBboYz-10" edge="1">
          <mxGeometry width="50" height="50" relative="1" as="geometry">
            <mxPoint x="601.5" y="634" as="sourcePoint" />
            <mxPoint x="731" y="566" as="targetPoint" />
            <Array as="points">
              <mxPoint x="595" y="600" />
              <mxPoint x="637" y="600" />
            </Array>
          </mxGeometry>
        </mxCell>
        <mxCell id="pif8Dmov2KubNqpBboYz-12" value="" style="endArrow=none;html=1;rounded=0;exitX=0.5;exitY=0;exitDx=0;exitDy=0;edgeStyle=orthogonalEdgeStyle;entryX=0.5;entryY=0;entryDx=0;entryDy=0;" parent="1" source="pif8Dmov2KubNqpBboYz-85" target="pif8Dmov2KubNqpBboYz-60" edge="1">
          <mxGeometry width="50" height="50" relative="1" as="geometry">
            <mxPoint x="619" y="634" as="sourcePoint" />
            <mxPoint x="624" y="610" as="targetPoint" />
          </mxGeometry>
        </mxCell>
        <mxCell id="pif8Dmov2KubNqpBboYz-13" value="" style="endArrow=none;html=1;rounded=0;exitX=0.5;exitY=0;exitDx=0;exitDy=0;edgeStyle=orthogonalEdgeStyle;entryX=0.5;entryY=1;entryDx=0;entryDy=0;" parent="1" source="pif8Dmov2KubNqpBboYz-93" target="pif8Dmov2KubNqpBboYz-7" edge="1">
          <mxGeometry width="50" height="50" relative="1" as="geometry">
            <mxPoint x="768" y="637" as="sourcePoint" />
            <mxPoint x="796" y="592" as="targetPoint" />
            <Array as="points">
              <mxPoint x="767" y="610" />
              <mxPoint x="795" y="610" />
            </Array>
          </mxGeometry>
        </mxCell>
        <mxCell id="pif8Dmov2KubNqpBboYz-58" value="" style="group;rotation=0;" parent="1" vertex="1" connectable="0">
          <mxGeometry x="646" y="557" width="56" height="30" as="geometry" />
        </mxCell>
        <mxCell id="pif8Dmov2KubNqpBboYz-59" value="" style="rounded=0;whiteSpace=wrap;html=1;fillColor=#fff2cc;strokeColor=#d6b656;rotation=0;" parent="pif8Dmov2KubNqpBboYz-58" vertex="1">
          <mxGeometry x="10" y="5" width="40" height="25" as="geometry" />
        </mxCell>
        <mxCell id="pif8Dmov2KubNqpBboYz-60" value="" style="rounded=0;whiteSpace=wrap;html=1;fillColor=#cdeb8b;strokeColor=#36393d;rotation=-180;" parent="pif8Dmov2KubNqpBboYz-58" vertex="1">
          <mxGeometry x="16" y="25" width="10" height="10" as="geometry" />
        </mxCell>
        <mxCell id="pif8Dmov2KubNqpBboYz-61" value="" style="rounded=0;whiteSpace=wrap;html=1;fillColor=#cdeb8b;strokeColor=#36393d;rotation=-180;" parent="pif8Dmov2KubNqpBboYz-58" vertex="1">
          <mxGeometry x="33" y="25" width="10" height="10" as="geometry" />
        </mxCell>
        <mxCell id="pif8Dmov2KubNqpBboYz-62" value="" style="endArrow=none;html=1;rounded=0;exitX=0.5;exitY=1;exitDx=0;exitDy=0;dashed=1;" parent="pif8Dmov2KubNqpBboYz-58" source="pif8Dmov2KubNqpBboYz-60" edge="1">
          <mxGeometry width="50" height="50" relative="1" as="geometry">
            <mxPoint x="20" y="28" as="sourcePoint" />
            <mxPoint x="21" y="20" as="targetPoint" />
            <Array as="points" />
          </mxGeometry>
        </mxCell>
        <mxCell id="pif8Dmov2KubNqpBboYz-63" value="" style="endArrow=none;html=1;rounded=0;dashed=1;exitX=0.5;exitY=1;exitDx=0;exitDy=0;" parent="pif8Dmov2KubNqpBboYz-58" source="pif8Dmov2KubNqpBboYz-61" edge="1">
          <mxGeometry width="50" height="50" relative="1" as="geometry">
            <mxPoint x="37" y="28" as="sourcePoint" />
            <mxPoint x="38" y="20" as="targetPoint" />
            <Array as="points" />
          </mxGeometry>
        </mxCell>
        <mxCell id="pif8Dmov2KubNqpBboYz-64" value="" style="endArrow=none;html=1;rounded=0;dashed=1;" parent="pif8Dmov2KubNqpBboYz-58" edge="1">
          <mxGeometry width="50" height="50" relative="1" as="geometry">
            <mxPoint x="44" y="21" as="sourcePoint" />
            <mxPoint x="38" y="14" as="targetPoint" />
            <Array as="points">
              <mxPoint x="38" y="16" />
            </Array>
          </mxGeometry>
        </mxCell>
        <mxCell id="pif8Dmov2KubNqpBboYz-65" value="" style="ellipse;whiteSpace=wrap;html=1;rotation=-180;" parent="pif8Dmov2KubNqpBboYz-58" vertex="1">
          <mxGeometry x="37" y="11" width="1.9411764705882353" height="2" as="geometry" />
        </mxCell>
        <mxCell id="pif8Dmov2KubNqpBboYz-66" value="" style="endArrow=none;html=1;rounded=0;dashed=1;exitX=-1.065;exitY=0.469;exitDx=0;exitDy=0;exitPerimeter=0;entryX=0.033;entryY=0.281;entryDx=0;entryDy=0;entryPerimeter=0;" parent="pif8Dmov2KubNqpBboYz-58" source="pif8Dmov2KubNqpBboYz-65" target="pif8Dmov2KubNqpBboYz-59" edge="1">
          <mxGeometry width="50" height="50" relative="1" as="geometry">
            <mxPoint x="-1008" y="-599" as="sourcePoint" />
            <mxPoint x="-1037" y="-599" as="targetPoint" />
            <Array as="points">
              <mxPoint x="38" y="12" />
            </Array>
          </mxGeometry>
        </mxCell>
        <mxCell id="pif8Dmov2KubNqpBboYz-67" value="" style="ellipse;whiteSpace=wrap;html=1;rotation=-180;strokeWidth=1;" parent="pif8Dmov2KubNqpBboYz-58" vertex="1">
          <mxGeometry x="20" y="11" width="1.9411764705882353" height="2" as="geometry" />
        </mxCell>
        <mxCell id="pif8Dmov2KubNqpBboYz-68" value="" style="endArrow=none;html=1;rounded=0;dashed=1;" parent="pif8Dmov2KubNqpBboYz-58" edge="1">
          <mxGeometry width="50" height="50" relative="1" as="geometry">
            <mxPoint x="27" y="21" as="sourcePoint" />
            <mxPoint x="21" y="14" as="targetPoint" />
            <Array as="points">
              <mxPoint x="21" y="16" />
            </Array>
          </mxGeometry>
        </mxCell>
        <mxCell id="pif8Dmov2KubNqpBboYz-70" value="" style="endArrow=none;html=1;rounded=0;entryX=0.5;entryY=0;entryDx=0;entryDy=0;exitX=0.5;exitY=0;exitDx=0;exitDy=0;edgeStyle=orthogonalEdgeStyle;" parent="1" source="pif8Dmov2KubNqpBboYz-94" target="pif8Dmov2KubNqpBboYz-61" edge="1">
          <mxGeometry width="50" height="50" relative="1" as="geometry">
            <mxPoint x="688.5" y="636" as="sourcePoint" />
            <mxPoint x="774" y="583" as="targetPoint" />
          </mxGeometry>
        </mxCell>
        <mxCell id="pif8Dmov2KubNqpBboYz-80" value="" style="group" parent="1" vertex="1" connectable="0">
          <mxGeometry x="583" y="634" width="40" height="31" as="geometry" />
        </mxCell>
        <mxCell id="pif8Dmov2KubNqpBboYz-81" value="" style="rounded=0;whiteSpace=wrap;html=1;" parent="pif8Dmov2KubNqpBboYz-80" vertex="1">
          <mxGeometry x="6.5" y="7" width="10" height="8.333333333333332" as="geometry" />
        </mxCell>
        <mxCell id="pif8Dmov2KubNqpBboYz-82" value="" style="rounded=0;whiteSpace=wrap;html=1;fillColor=#dae8fc;strokeColor=#6c8ebf;" parent="pif8Dmov2KubNqpBboYz-80" vertex="1">
          <mxGeometry y="6" width="40" height="25" as="geometry" />
        </mxCell>
        <mxCell id="pif8Dmov2KubNqpBboYz-83" value="" style="endArrow=none;html=1;rounded=0;dashed=1;" parent="pif8Dmov2KubNqpBboYz-80" edge="1">
          <mxGeometry width="50" height="50" relative="1" as="geometry">
            <mxPoint x="3.5" y="23.66666666666663" as="sourcePoint" />
            <mxPoint x="37.5" y="23.66666666666663" as="targetPoint" />
          </mxGeometry>
        </mxCell>
        <mxCell id="pif8Dmov2KubNqpBboYz-84" value="" style="endArrow=none;html=1;rounded=0;exitX=0.5;exitY=1;exitDx=0;exitDy=0;dashed=1;" parent="pif8Dmov2KubNqpBboYz-80" source="pif8Dmov2KubNqpBboYz-86" edge="1">
          <mxGeometry width="50" height="50" relative="1" as="geometry">
            <mxPoint x="11.440000000000055" y="15.333333333333371" as="sourcePoint" />
            <mxPoint x="11.5" y="23.66666666666663" as="targetPoint" />
            <Array as="points">
              <mxPoint x="11.440000000000055" y="23.66666666666663" />
            </Array>
          </mxGeometry>
        </mxCell>
        <mxCell id="pif8Dmov2KubNqpBboYz-85" value="" style="rounded=0;whiteSpace=wrap;html=1;fillColor=#cdeb8b;strokeColor=#36393d;" parent="pif8Dmov2KubNqpBboYz-80" vertex="1">
          <mxGeometry x="24" width="10" height="10" as="geometry" />
        </mxCell>
        <mxCell id="pif8Dmov2KubNqpBboYz-86" value="" style="rounded=0;whiteSpace=wrap;html=1;fillColor=#cdeb8b;strokeColor=#36393d;" parent="pif8Dmov2KubNqpBboYz-80" vertex="1">
          <mxGeometry x="6.5" width="10" height="10" as="geometry" />
        </mxCell>
        <mxCell id="pif8Dmov2KubNqpBboYz-87" value="" style="endArrow=none;html=1;rounded=0;exitX=0.5;exitY=1;exitDx=0;exitDy=0;dashed=1;" parent="pif8Dmov2KubNqpBboYz-80" edge="1">
          <mxGeometry width="50" height="50" relative="1" as="geometry">
            <mxPoint x="29" y="10.333333333333371" as="sourcePoint" />
            <mxPoint x="29" y="23.66666666666663" as="targetPoint" />
            <Array as="points">
              <mxPoint x="28.940000000000055" y="23.66666666666663" />
            </Array>
          </mxGeometry>
        </mxCell>
        <mxCell id="pif8Dmov2KubNqpBboYz-88" value="" style="group" parent="1" vertex="1" connectable="0">
          <mxGeometry x="738" y="634" width="40" height="31" as="geometry" />
        </mxCell>
        <mxCell id="pif8Dmov2KubNqpBboYz-89" value="" style="rounded=0;whiteSpace=wrap;html=1;" parent="pif8Dmov2KubNqpBboYz-88" vertex="1">
          <mxGeometry x="6.5" y="7" width="10" height="8.333333333333332" as="geometry" />
        </mxCell>
        <mxCell id="pif8Dmov2KubNqpBboYz-90" value="" style="rounded=0;whiteSpace=wrap;html=1;fillColor=#dae8fc;strokeColor=#6c8ebf;" parent="pif8Dmov2KubNqpBboYz-88" vertex="1">
          <mxGeometry y="6" width="40" height="25" as="geometry" />
        </mxCell>
        <mxCell id="pif8Dmov2KubNqpBboYz-91" value="" style="endArrow=none;html=1;rounded=0;dashed=1;" parent="pif8Dmov2KubNqpBboYz-88" edge="1">
          <mxGeometry width="50" height="50" relative="1" as="geometry">
            <mxPoint x="3.5" y="23.66666666666663" as="sourcePoint" />
            <mxPoint x="37.5" y="23.66666666666663" as="targetPoint" />
          </mxGeometry>
        </mxCell>
        <mxCell id="pif8Dmov2KubNqpBboYz-92" value="" style="endArrow=none;html=1;rounded=0;exitX=0.5;exitY=1;exitDx=0;exitDy=0;dashed=1;" parent="pif8Dmov2KubNqpBboYz-88" source="pif8Dmov2KubNqpBboYz-94" edge="1">
          <mxGeometry width="50" height="50" relative="1" as="geometry">
            <mxPoint x="11.440000000000055" y="15.333333333333371" as="sourcePoint" />
            <mxPoint x="11.5" y="23.66666666666663" as="targetPoint" />
            <Array as="points">
              <mxPoint x="11.440000000000055" y="23.66666666666663" />
            </Array>
          </mxGeometry>
        </mxCell>
        <mxCell id="pif8Dmov2KubNqpBboYz-93" value="" style="rounded=0;whiteSpace=wrap;html=1;fillColor=#cdeb8b;strokeColor=#36393d;" parent="pif8Dmov2KubNqpBboYz-88" vertex="1">
          <mxGeometry x="24" width="10" height="10" as="geometry" />
        </mxCell>
        <mxCell id="pif8Dmov2KubNqpBboYz-94" value="" style="rounded=0;whiteSpace=wrap;html=1;fillColor=#cdeb8b;strokeColor=#36393d;" parent="pif8Dmov2KubNqpBboYz-88" vertex="1">
          <mxGeometry x="6.5" width="10" height="10" as="geometry" />
        </mxCell>
        <mxCell id="pif8Dmov2KubNqpBboYz-95" value="" style="endArrow=none;html=1;rounded=0;exitX=0.5;exitY=1;exitDx=0;exitDy=0;dashed=1;" parent="pif8Dmov2KubNqpBboYz-88" edge="1">
          <mxGeometry width="50" height="50" relative="1" as="geometry">
            <mxPoint x="29" y="10.333333333333371" as="sourcePoint" />
            <mxPoint x="29" y="23.66666666666663" as="targetPoint" />
            <Array as="points">
              <mxPoint x="28.940000000000055" y="23.66666666666663" />
            </Array>
          </mxGeometry>
        </mxCell>
        <mxCell id="pif8Dmov2KubNqpBboYz-96" value="point-to-point" style="text;html=1;align=center;verticalAlign=middle;resizable=0;points=[];autosize=1;strokeColor=none;fillColor=none;fontSize=8;" parent="1" vertex="1">
          <mxGeometry x="569" y="661" width="70" height="20" as="geometry" />
        </mxCell>
        <mxCell id="pif8Dmov2KubNqpBboYz-97" value="FMU" style="rounded=1;whiteSpace=wrap;html=1;verticalAlign=middle;fontSize=14;spacing=2;spacingTop=-10;strokeColor=#999999;strokeWidth=2;" parent="1" vertex="1">
          <mxGeometry x="351" y="518" width="110" height="55" as="geometry" />
        </mxCell>
        <mxCell id="pif8Dmov2KubNqpBboYz-98" value="multidrop" style="text;html=1;align=center;verticalAlign=middle;resizable=0;points=[];autosize=1;strokeColor=none;fillColor=none;fontSize=8;" parent="1" vertex="1">
          <mxGeometry x="466" y="662" width="60" height="20" as="geometry" />
        </mxCell>
        <mxCell id="pif8Dmov2KubNqpBboYz-99" value="" style="rounded=0;whiteSpace=wrap;html=1;fillColor=#cdeb8b;strokeColor=#36393d;" parent="1" vertex="1">
          <mxGeometry x="401" y="568" width="10" height="10" as="geometry" />
        </mxCell>
        <mxCell id="pif8Dmov2KubNqpBboYz-100" value="" style="endArrow=none;html=1;rounded=0;entryX=0.5;entryY=1;entryDx=0;entryDy=0;exitX=0.5;exitY=0;exitDx=0;exitDy=0;edgeStyle=orthogonalEdgeStyle;" parent="1" source="pif8Dmov2KubNqpBboYz-112" target="pif8Dmov2KubNqpBboYz-99" edge="1">
          <mxGeometry width="50" height="50" relative="1" as="geometry">
            <mxPoint x="521" y="586" as="sourcePoint" />
            <mxPoint x="571" y="536" as="targetPoint" />
          </mxGeometry>
        </mxCell>
        <mxCell id="pif8Dmov2KubNqpBboYz-102" value="" style="group" parent="1" vertex="1" connectable="0">
          <mxGeometry x="467" y="634" width="57" height="31" as="geometry" />
        </mxCell>
        <mxCell id="pif8Dmov2KubNqpBboYz-103" value="" style="rounded=0;whiteSpace=wrap;html=1;" parent="pif8Dmov2KubNqpBboYz-102" vertex="1">
          <mxGeometry x="23.5" y="7" width="10" height="8.333333333333332" as="geometry" />
        </mxCell>
        <mxCell id="pif8Dmov2KubNqpBboYz-104" value="" style="rounded=0;whiteSpace=wrap;html=1;fillColor=#dae8fc;strokeColor=#6c8ebf;" parent="pif8Dmov2KubNqpBboYz-102" vertex="1">
          <mxGeometry y="6" width="57" height="25" as="geometry" />
        </mxCell>
        <mxCell id="pif8Dmov2KubNqpBboYz-105" value="" style="endArrow=none;html=1;rounded=0;dashed=1;exitX=0.699;exitY=-0.043;exitDx=0;exitDy=0;exitPerimeter=0;" parent="pif8Dmov2KubNqpBboYz-102" edge="1">
          <mxGeometry width="50" height="50" relative="1" as="geometry">
            <mxPoint x="4" y="23.710000000000036" as="sourcePoint" />
            <mxPoint x="52.56999999999999" y="23.66666666666663" as="targetPoint" />
          </mxGeometry>
        </mxCell>
        <mxCell id="pif8Dmov2KubNqpBboYz-106" value="" style="endArrow=none;html=1;rounded=0;exitX=0.5;exitY=1;exitDx=0;exitDy=0;dashed=1;" parent="pif8Dmov2KubNqpBboYz-102" source="pif8Dmov2KubNqpBboYz-108" edge="1">
          <mxGeometry width="50" height="50" relative="1" as="geometry">
            <mxPoint x="28.440000000000055" y="15.333333333333371" as="sourcePoint" />
            <mxPoint x="28.5" y="23.66666666666663" as="targetPoint" />
            <Array as="points">
              <mxPoint x="28.440000000000055" y="23.66666666666663" />
            </Array>
          </mxGeometry>
        </mxCell>
        <mxCell id="pif8Dmov2KubNqpBboYz-107" value="" style="rounded=0;whiteSpace=wrap;html=1;fillColor=#cdeb8b;strokeColor=#36393d;" parent="pif8Dmov2KubNqpBboYz-102" vertex="1">
          <mxGeometry x="41" width="10" height="10" as="geometry" />
        </mxCell>
        <mxCell id="pif8Dmov2KubNqpBboYz-108" value="" style="rounded=0;whiteSpace=wrap;html=1;fillColor=#cdeb8b;strokeColor=#36393d;" parent="pif8Dmov2KubNqpBboYz-102" vertex="1">
          <mxGeometry x="23.5" width="10" height="10" as="geometry" />
        </mxCell>
        <mxCell id="pif8Dmov2KubNqpBboYz-109" value="" style="endArrow=none;html=1;rounded=0;exitX=0.5;exitY=1;exitDx=0;exitDy=0;dashed=1;" parent="pif8Dmov2KubNqpBboYz-102" edge="1">
          <mxGeometry width="50" height="50" relative="1" as="geometry">
            <mxPoint x="46" y="10.333333333333371" as="sourcePoint" />
            <mxPoint x="46" y="23.66666666666663" as="targetPoint" />
            <Array as="points">
              <mxPoint x="45.940000000000055" y="23.66666666666663" />
            </Array>
          </mxGeometry>
        </mxCell>
        <mxCell id="pif8Dmov2KubNqpBboYz-110" value="" style="endArrow=none;html=1;rounded=0;exitX=0.5;exitY=1;exitDx=0;exitDy=0;dashed=1;" parent="pif8Dmov2KubNqpBboYz-102" edge="1">
          <mxGeometry width="50" height="50" relative="1" as="geometry">
            <mxPoint x="9.999999999999943" y="10" as="sourcePoint" />
            <mxPoint x="10" y="24" as="targetPoint" />
          </mxGeometry>
        </mxCell>
        <mxCell id="pif8Dmov2KubNqpBboYz-111" value="" style="endArrow=none;html=1;rounded=0;exitX=0.5;exitY=1;exitDx=0;exitDy=0;dashed=1;" parent="pif8Dmov2KubNqpBboYz-102" target="pif8Dmov2KubNqpBboYz-112" edge="1">
          <mxGeometry width="50" height="50" relative="1" as="geometry">
            <mxPoint x="11.560000000000002" y="10" as="sourcePoint" />
            <mxPoint x="11.060000000000002" y="23.66666666666663" as="targetPoint" />
            <Array as="points" />
          </mxGeometry>
        </mxCell>
        <mxCell id="pif8Dmov2KubNqpBboYz-112" value="" style="rounded=0;whiteSpace=wrap;html=1;fillColor=#cdeb8b;strokeColor=#36393d;" parent="pif8Dmov2KubNqpBboYz-102" vertex="1">
          <mxGeometry x="5" width="10" height="10" as="geometry" />
        </mxCell>
        <mxCell id="pif8Dmov2KubNqpBboYz-129" value="point-to-point" style="text;html=1;align=center;verticalAlign=middle;resizable=0;points=[];autosize=1;strokeColor=none;fillColor=none;fontSize=8;" parent="1" vertex="1">
          <mxGeometry x="723" y="661" width="70" height="20" as="geometry" />
        </mxCell>
        <mxCell id="pif8Dmov2KubNqpBboYz-69" value="switch" style="text;html=1;align=center;verticalAlign=middle;resizable=0;points=[];autosize=1;strokeColor=none;fillColor=none;fontSize=8;" parent="1" vertex="1">
          <mxGeometry x="651" y="546" width="50" height="20" as="geometry" />
        </mxCell>
        <mxCell id="cdYuwGener0yOZgB6KuY-16" value="" style="group" vertex="1" connectable="0" parent="1">
          <mxGeometry x="725" y="730" width="116.99967213114758" height="58" as="geometry" />
        </mxCell>
        <mxCell id="cdYuwGener0yOZgB6KuY-14" value="" style="rounded=0;whiteSpace=wrap;html=1;" vertex="1" parent="cdYuwGener0yOZgB6KuY-16">
          <mxGeometry y="1" width="112" height="57" as="geometry" />
        </mxCell>
        <mxCell id="cdYuwGener0yOZgB6KuY-3" value="Bus Terminal" style="text;html=1;align=left;verticalAlign=middle;resizable=0;points=[];autosize=1;strokeColor=none;fillColor=none;fontSize=10;container=0;" vertex="1" parent="cdYuwGener0yOZgB6KuY-16">
          <mxGeometry x="18.99967213114769" width="80" height="30" as="geometry" />
        </mxCell>
        <mxCell id="cdYuwGener0yOZgB6KuY-4" value="" style="rounded=0;whiteSpace=wrap;html=1;fillColor=#cdeb8b;strokeColor=#36393d;container=0;" vertex="1" parent="cdYuwGener0yOZgB6KuY-16">
          <mxGeometry x="8.000000000000227" y="9.854117647058729" width="10" height="10" as="geometry" />
        </mxCell>
        <mxCell id="cdYuwGener0yOZgB6KuY-5" value="" style="rounded=0;whiteSpace=wrap;html=1;fillColor=#dae8fc;strokeColor=#6c8ebf;container=0;" vertex="1" parent="cdYuwGener0yOZgB6KuY-16">
          <mxGeometry x="8.000000000000114" y="23.85411764705873" width="10" height="10" as="geometry" />
        </mxCell>
        <mxCell id="cdYuwGener0yOZgB6KuY-6" value="" style="rounded=0;whiteSpace=wrap;html=1;fillColor=#fff2cc;strokeColor=#d6b656;container=0;" vertex="1" parent="cdYuwGener0yOZgB6KuY-16">
          <mxGeometry x="8.000000000000114" y="37.004117647058706" width="10" height="10" as="geometry" />
        </mxCell>
        <mxCell id="cdYuwGener0yOZgB6KuY-7" value="Switch Terminal" style="text;html=1;align=left;verticalAlign=middle;resizable=0;points=[];autosize=1;strokeColor=none;fillColor=none;fontSize=10;container=0;" vertex="1" parent="cdYuwGener0yOZgB6KuY-16">
          <mxGeometry x="18.999672131147577" y="31" width="88" height="24" as="geometry" />
        </mxCell>
        <mxCell id="cdYuwGener0yOZgB6KuY-8" value="Segment Terminal" style="text;html=1;align=left;verticalAlign=middle;resizable=0;points=[];autosize=1;strokeColor=none;fillColor=none;fontSize=10;container=0;" vertex="1" parent="cdYuwGener0yOZgB6KuY-16">
          <mxGeometry x="18.999672131147577" y="16.850000000000023" width="98" height="24" as="geometry" />
        </mxCell>
      </root>
    </mxGraphModel>
  </diagram>
</mxfile>
